<svg width="140" height="16" viewBox="0 0 140 16" fill="none" xmlns="http://www.w3.org/2000/svg">
<path d="M20.58 0.404999L16.254 15H13.545L10.479 3.954L7.224 15L4.536 15.021L0.399 0.404999H2.94L5.964 12.291L9.24 0.404999H11.928L14.973 12.228L18.018 0.404999H20.58ZM24.1085 0.404999V15H21.7145V0.404999H24.1085ZM31.2206 15.147C30.2406 15.147 29.3586 14.979 28.5746 14.643C27.7906 14.293 27.1746 13.803 26.7266 13.173C26.2786 12.543 26.0546 11.808 26.0546 10.968H28.6166C28.6726 11.598 28.9176 12.116 29.3516 12.522C29.7996 12.928 30.4226 13.131 31.2206 13.131C32.0466 13.131 32.6906 12.935 33.1526 12.543C33.6146 12.137 33.8456 11.619 33.8456 10.989C33.8456 10.499 33.6986 10.1 33.4046 9.792C33.1246 9.484 32.7676 9.246 32.3336 9.078C31.9136 8.91 31.3256 8.728 30.5696 8.532C29.6176 8.28 28.8406 8.028 28.2386 7.776C27.6506 7.51 27.1466 7.104 26.7266 6.558C26.3066 6.012 26.0966 5.284 26.0966 4.374C26.0966 3.534 26.3066 2.799 26.7266 2.169C27.1466 1.539 27.7346 1.056 28.4906 0.72C29.2466 0.383999 30.1216 0.215999 31.1156 0.215999C32.5296 0.215999 33.6846 0.572999 34.5806 1.287C35.4906 1.987 35.9946 2.953 36.0926 4.185H33.4466C33.4046 3.653 33.1526 3.198 32.6906 2.82C32.2286 2.442 31.6196 2.253 30.8636 2.253C30.1776 2.253 29.6176 2.428 29.1836 2.778C28.7496 3.128 28.5326 3.632 28.5326 4.29C28.5326 4.738 28.6656 5.109 28.9316 5.403C29.2116 5.683 29.5616 5.907 29.9816 6.075C30.4016 6.243 30.9756 6.425 31.7036 6.621C32.6696 6.887 33.4536 7.153 34.0556 7.419C34.6716 7.685 35.1896 8.098 35.6096 8.658C36.0436 9.204 36.2606 9.939 36.2606 10.863C36.2606 11.605 36.0576 12.305 35.6516 12.963C35.2596 13.621 34.6786 14.153 33.9086 14.559C33.1526 14.951 32.2566 15.147 31.2206 15.147ZM49.9004 0.404999V15H47.5064V8.616H40.6394V15H38.2454V0.404999H40.6394V6.663H47.5064V0.404999H49.9004ZM54.6061 2.337V6.621H59.6461V8.574H54.6061V13.047H60.2761V15H52.2121V0.383999H60.2761V2.337H54.6061ZM69.9658 15L66.6058 9.162H64.7788V15H62.3848V0.404999H67.4248C68.5448 0.404999 69.4898 0.600999 70.2598 0.992999C71.0438 1.385 71.6248 1.91 72.0028 2.568C72.3948 3.226 72.5908 3.961 72.5908 4.773C72.5908 5.725 72.3108 6.593 71.7508 7.377C71.2048 8.147 70.3578 8.672 69.2098 8.952L72.8218 15H69.9658ZM64.7788 7.251H67.4248C68.3208 7.251 68.9928 7.027 69.4408 6.579C69.9028 6.131 70.1338 5.529 70.1338 4.773C70.1338 4.017 69.9098 3.429 69.4618 3.009C69.0138 2.575 68.3348 2.358 67.4248 2.358H64.7788V7.251ZM79.6223 15.147C78.6423 15.147 77.7603 14.979 76.9763 14.643C76.1923 14.293 75.5763 13.803 75.1283 13.173C74.6803 12.543 74.4563 11.808 74.4563 10.968H77.0183C77.0743 11.598 77.3193 12.116 77.7533 12.522C78.2013 12.928 78.8243 13.131 79.6223 13.131C80.4483 13.131 81.0923 12.935 81.5543 12.543C82.0163 12.137 82.2473 11.619 82.2473 10.989C82.2473 10.499 82.1003 10.1 81.8063 9.792C81.5263 9.484 81.1693 9.246 80.7353 9.078C80.3153 8.91 79.7273 8.728 78.9713 8.532C78.0193 8.28 77.2423 8.028 76.6403 7.776C76.0523 7.51 75.5483 7.104 75.1283 6.558C74.7083 6.012 74.4983 5.284 74.4983 4.374C74.4983 3.534 74.7083 2.799 75.1283 2.169C75.5483 1.539 76.1363 1.056 76.8923 0.72C77.6483 0.383999 78.5233 0.215999 79.5173 0.215999C80.9313 0.215999 82.0863 0.572999 82.9823 1.287C83.8923 1.987 84.3963 2.953 84.4943 4.185H81.8483C81.8063 3.653 81.5543 3.198 81.0923 2.82C80.6303 2.442 80.0213 2.253 79.2653 2.253C78.5793 2.253 78.0193 2.428 77.5853 2.778C77.1513 3.128 76.9343 3.632 76.9343 4.29C76.9343 4.738 77.0673 5.109 77.3333 5.403C77.6133 5.683 77.9633 5.907 78.3833 6.075C78.8033 6.243 79.3773 6.425 80.1053 6.621C81.0713 6.887 81.8553 7.153 82.4573 7.419C83.0733 7.685 83.5913 8.098 84.0113 8.658C84.4453 9.204 84.6623 9.939 84.6623 10.863C84.6623 11.605 84.4593 12.305 84.0533 12.963C83.6613 13.621 83.0803 14.153 82.3103 14.559C81.5543 14.951 80.6583 15.147 79.6223 15.147ZM100.691 0.404999V2.358H96.8062V15H94.4122V2.358H90.5062V0.404999H100.691ZM104.67 2.337V6.621H109.71V8.574H104.67V13.047H110.34V15H102.276V0.383999H110.34V2.337H104.67ZM111.65 7.671C111.65 6.243 111.979 4.962 112.637 3.828C113.309 2.694 114.212 1.812 115.346 1.182C116.494 0.537999 117.747 0.215999 119.105 0.215999C120.659 0.215999 122.038 0.600999 123.242 1.371C124.46 2.127 125.342 3.205 125.888 4.605H123.011C122.633 3.835 122.108 3.261 121.436 2.883C120.764 2.505 119.987 2.316 119.105 2.316C118.139 2.316 117.278 2.533 116.522 2.967C115.766 3.401 115.171 4.024 114.737 4.836C114.317 5.648 114.107 6.593 114.107 7.671C114.107 8.749 114.317 9.694 114.737 10.506C115.171 11.318 115.766 11.948 116.522 12.396C117.278 12.83 118.139 13.047 119.105 13.047C119.987 13.047 120.764 12.858 121.436 12.48C122.108 12.102 122.633 11.528 123.011 10.758H125.888C125.342 12.158 124.46 13.236 123.242 13.992C122.038 14.748 120.659 15.126 119.105 15.126C117.733 15.126 116.48 14.811 115.346 14.181C114.212 13.537 113.309 12.648 112.637 11.514C111.979 10.38 111.65 9.099 111.65 7.671ZM139.506 0.404999V15H137.112V8.616H130.245V15H127.851V0.404999H130.245V6.663H137.112V0.404999H139.506Z" fill="white"/>
</svg>
